<?xml version="1.0" encoding="utf-8"?>
<!-- Generator: Adobe Illustrator 25.0.1, SVG Export Plug-In . SVG Version: 6.00 Build 0)  -->
<svg version="1.1" id="atW" xmlns="http://www.w3.org/2000/svg" xmlns:xlink="http://www.w3.org/1999/xlink" x="0px" y="0px"
	 viewBox="0 0 106 105" style="enable-background:new 0 0 106 105;" xml:space="preserve">
<style type="text/css">
	.st1{ fill:#cf2192; }
</style>
<g>
	<path class="st1" d="M58.6,104.1C26.8,104.1,0.9,81,0.9,52.5S26.8,0.9,58.6,0.9l6.6-0.1C89.8,1,104.5,17.1,104.5,44
		c-1.2,11.9-8,21.3-18.3,25.4c-8.2,3.2-16.8,2.2-22.5-2.8c-2.2-1.9-5.1-5.5-6.2-11.4C51.5,65.4,42.3,77,30.7,74
		c-0.4-0.1-0.8-0.3-1.1-0.5c-1-0.7-2.2-2-2.6-4.4c-1.6-9.8,15.2-33.4,18.5-38c1.1-1.5,3.2-1.8,4.7-0.7s1.8,3.2,0.7,4.7
		C40.7,49,32.9,63.8,33.5,67.8C43.8,68.9,53,50,56.6,42.6c2-4,2.5-5.1,4.4-5.4c1.1-0.2,2.2,0.2,3,1c0.8,0.8,1.1,2,0.8,3.1
		c-2.3,9.2-1.1,16.4,3.3,20.3c3.8,3.3,9.8,3.9,15.6,1.6c7.9-3.1,13.2-10.4,14.1-19.5c0-31.2-20.4-36-32.6-36.1l-6.6,0.1
		C30.4,7.7,7.5,27.8,7.5,52.6s22.9,44.9,51,44.9c13.6,0,19.2-4.4,19.3-4.5c1.4-1.2,3.5-1,4.7,0.4s1,3.5-0.4,4.7
		C81.5,98.7,74.7,104.1,58.6,104.1z"/>
</g>
</svg>
