<?xml version="1.0" encoding="utf-8"?>
<!-- Generator: Adobe Illustrator 25.2.1, SVG Export Plug-In . SVG Version: 6.00 Build 0)  -->
<svg version="1.1" id="Layer_1" xmlns="http://www.w3.org/2000/svg" xmlns:xlink="http://www.w3.org/1999/xlink" x="0px" y="0px"
	 viewBox="0 0 686 22.9" style="enable-background:new 0 0 686 22.9;" xml:space="preserve">
<style type="text/css">
	.st0{fill:#FFFFFF;}
</style>
<g>
	<path class="st0" d="M30.2,21.8V1.6H42v1.5H32v7.4h7.3V12H32v9.7L30.2,21.8L30.2,21.8z"/>
	<path class="st0" d="M59.5,21.8h-2l-4.7-9.2h-5.2v9.2h-1.8V1.6h6.8c4,0,6.2,2.2,6.2,5.5c0,2.7-1.3,4.4-4.2,5.2L59.5,21.8z M47.6,11
		h5c2.7,0,4.4-1.5,4.4-4s-1.5-4-4.4-4h-5V11z"/>
	<path class="st0" d="M64.4,21.8V1.6h11.5v1.5h-9.7v7.4h7V12h-7v8.2h10.2v1.5L64.4,21.8L64.4,21.8z"/>
	<path class="st0" d="M80,21.8V1.6h11.5v1.5h-9.7v7.4h7V12h-7v8.2H92v1.5L80,21.8L80,21.8z"/>
	<path class="st0" d="M95.5,1.6h1.8v18.7h9v1.5H95.5V1.6z"/>
	<path class="st0" d="M113.9,1.6h2.8l6.4,20.2h-2l-2-6.6h-7.6l-2.1,6.6h-2L113.9,1.6z M118.7,13.7l-3.4-10.6h-0.1l-3.3,10.6H118.7z"
		/>
	<path class="st0" d="M126.7,1.6h3.1l9.6,16.9h0.1V1.6h1.8v20.2h-1.9L128.6,3.1h-0.1v18.7h-1.8L126.7,1.6L126.7,1.6z"/>
	<path class="st0" d="M158,7.5c-0.9-3-2.5-4.7-4.9-4.7c-4,0-5.8,3.9-5.8,8.9s1.8,8.9,6,8.9c3.2,0,4.4-2.3,5.1-4.9l1.7,0.3
		c-0.8,3.6-2.6,6.1-6.9,6.1c-4.9,0-7.8-4.1-7.8-10.4s2.9-10.4,7.8-10.4c3.6,0,5.6,2.5,6.5,5.9L158,7.5z"/>
	<path class="st0" d="M164,21.8V1.6h11.5v1.5h-9.7v7.4h7V12h-7v8.2H176v1.5L164,21.8L164,21.8z"/>
	<path class="st0" d="M187.3,1.6h5.7c6.3,0,8.8,4.7,8.8,10.1s-2.5,10.1-8.8,10.1h-5.7V1.6z M189.2,20.3h3.9c4.5,0,6.9-3.1,6.9-8.6
		s-2.4-8.6-6.9-8.6h-3.9V20.3z"/>
	<path class="st0" d="M206,21.8V1.6h11.5v1.5h-9.7v7.4h7V12h-7v8.2H218v1.5L206,21.8L206,21.8z"/>
	<path class="st0" d="M221.4,16.1c0.8,3.1,2.6,4.4,5.8,4.4c2.5,0,4-1.6,4-4c0-5.4-10.9-3.3-10.9-10c0-3,2.1-5.2,5.8-5.2
		c3.2,0,5.5,1.7,6.5,4.8L231,6.6c-0.7-2.2-2.3-3.8-4.9-3.8c-2.4,0-4,1.3-4,3.7c0,1.4,0.4,2.4,4.1,3.8c5.7,2.1,6.8,3.5,6.8,6.4
		c0,3.4-2.9,5.3-6.2,5.3c-3.9,0-6.1-1.7-7.2-5.4L221.4,16.1z"/>
	<path class="st0" d="M237.3,1.6h1.8v20.2h-1.8V1.6z"/>
	<path class="st0" d="M256.4,7.5c-0.6-2.6-2.2-4.6-5.2-4.6c-3.6,0-5.9,3.4-5.9,8.9c0,4.3,1.3,8.9,6.5,8.9c2.9,0,4.7-2.2,4.7-4.9V14
		h-5.1v-1.5h6.9V22h-1.6v-2h-0.1c-1.2,1.6-2.7,2.3-5.5,2.3c-4.5,0-7.8-3.7-7.8-10.4s3.5-10.4,7.8-10.4c3.8,0,6.1,2.4,6.8,5.9
		L256.4,7.5z"/>
	<path class="st0" d="M263.6,1.6h3.1l9.6,16.9h0.1V1.6h1.8v20.2h-1.9L265.5,3.1h-0.1v18.7h-1.8L263.6,1.6L263.6,1.6z"/>
	<path class="st0" d="M283.8,21.8V1.6h11.5v1.5h-9.7v7.4h7V12h-7v8.2h10.2v1.5L283.8,21.8L283.8,21.8z"/>
	<path class="st0" d="M313.2,21.8h-2l-4.7-9.2h-5.2v9.2h-1.8V1.6h6.8c4,0,6.2,2.2,6.2,5.5c0,2.7-1.3,4.4-4.2,5.2L313.2,21.8z
		 M301.2,11h5c2.7,0,4.4-1.5,4.4-4s-1.5-4-4.4-4h-5V11z"/>
	<path class="st0" d="M324.4,22.1h-1.7l6.9-20.8h1.5L324.4,22.1z"/>
	<path class="st0" d="M341.4,21.8V1.6h11.9v1.5h-10v7.4h7.3V12h-7.3v9.7L341.4,21.8L341.4,21.8z"/>
	<path class="st0" d="M370.8,21.8h-2l-4.7-9.2h-5.2v9.2H357V1.6h6.8c4,0,6.2,2.2,6.2,5.5c0,2.7-1.3,4.4-4.2,5.2L370.8,21.8z
		 M358.8,11h5c2.7,0,4.4-1.5,4.4-4s-1.5-4-4.4-4h-5V11z"/>
	<path class="st0" d="M390.2,11.7c0,6-2.9,10.4-8,10.4s-8-4.4-8-10.4s2.9-10.4,8-10.4C387.3,1.3,390.2,5.7,390.2,11.7z M388.3,11.7
		c0-5.7-2.4-8.9-6.1-8.9s-6.1,3.2-6.1,8.9s2.4,8.9,6.1,8.9S388.3,17.4,388.3,11.7z"/>
	<path class="st0" d="M394.3,1.6h3.1l9.6,16.9h0.1V1.6h1.8v20.2H407L396.2,3.1h-0.1v18.7h-1.8L394.3,1.6L394.3,1.6z"/>
	<path class="st0" d="M412.6,1.6h13.8v1.5h-6v18.7h-1.8V3.1h-6V1.6z"/>
	<path class="st0" d="M425.9,15.3v-1.5h7v1.5H425.9z"/>
	<path class="st0" d="M436.9,21.8V1.6h11.5v1.5h-9.7v7.4h7V12h-7v8.2h10.2v1.5L436.9,21.8L436.9,21.8z"/>
	<path class="st0" d="M452.4,1.6h3.1l9.6,16.9h0.1V1.6h1.8v20.2h-1.9L454.3,3.1h-0.1v18.7h-1.8L452.4,1.6L452.4,1.6z"/>
	<path class="st0" d="M472.7,1.6h5.7c6.3,0,8.8,4.7,8.8,10.1s-2.5,10.1-8.8,10.1h-5.7V1.6z M474.5,20.3h3.9c4.5,0,6.9-3.1,6.9-8.6
		s-2.4-8.6-6.9-8.6h-3.9V20.3z"/>
	<path class="st0" d="M499.1,1.6h5.7c6.3,0,8.8,4.7,8.8,10.1s-2.5,10.1-8.8,10.1h-5.7L499.1,1.6L499.1,1.6z M501,20.3h3.9
		c4.5,0,6.9-3.1,6.9-8.6s-2.4-8.6-6.9-8.6H501V20.3z"/>
	<path class="st0" d="M517.8,21.8V1.6h11.5v1.5h-9.7v7.4h7V12h-7v8.2h10.2v1.5L517.8,21.8L517.8,21.8z"/>
	<path class="st0" d="M530.8,1.6h2l5.5,17.6h0.1l5.7-17.6h2l-6.7,20.2h-1.8L530.8,1.6z"/>
	<path class="st0" d="M548.9,21.8V1.6h11.5v1.5h-9.7v7.4h7V12h-7v8.2H561v1.5L548.9,21.8L548.9,21.8z"/>
	<path class="st0" d="M564.5,1.6h1.8v18.7h9v1.5h-10.9V1.6H564.5z"/>
	<path class="st0" d="M593,11.7c0,6-2.9,10.4-8,10.4s-8-4.4-8-10.4s2.9-10.4,8-10.4S593,5.7,593,11.7z M591.2,11.7
		c0-5.7-2.4-8.9-6.1-8.9c-3.7,0-6.1,3.2-6.1,8.9s2.4,8.9,6.1,8.9C588.7,20.6,591.2,17.4,591.2,11.7z"/>
	<path class="st0" d="M597.2,21.8V1.6h6.1c4.8,0,6.8,2.2,6.8,5.6s-2,5.6-6.8,5.6H599v9H597.2z M599,11.3h4.3c3.5,0,5-1.5,5-4.1
		s-1.5-4.1-5-4.1H599V11.3z"/>
	<path class="st0" d="M614.3,21.8V1.6h11.5v1.5h-9.7v7.4h7V12h-7v8.2h10.2v1.5L614.3,21.8L614.3,21.8z"/>
	<path class="st0" d="M643.7,21.8h-2l-4.7-9.2h-5.2v9.2H630V1.6h6.8c4,0,6.2,2.2,6.2,5.5c0,2.7-1.3,4.4-4.2,5.2L643.7,21.8z
		 M631.7,11h5c2.7,0,4.4-1.5,4.4-4s-1.5-4-4.4-4h-5V11z"/>
</g>
</svg>
