<?xml version="1.0" encoding="utf-8"?>
<!-- Generator: Adobe Illustrator 25.2.1, SVG Export Plug-In . SVG Version: 6.00 Build 0)  -->
<svg version="1.1" id="Layer_1" xmlns="http://www.w3.org/2000/svg" xmlns:xlink="http://www.w3.org/1999/xlink" x="0px" y="0px"
	 viewBox="0 0 686 82.2" style="enable-background:new 0 0 686 82.2;" xml:space="preserve">
<style type="text/css">
	.st0{fill:#FFFFFF;}
</style>
<g>
	<path class="st0" d="M2.4,2.3h13.8l10.5,50.9h0.2L37.6,2.3H52l10.8,50.9H63L73.4,2.3h13.9L70.1,80.2H55.8L44.9,26.9h-0.2L32.9,80.2
		H18.7L2.4,2.3z"/>
	<path class="st0" d="M92.9,80.2V2.3h14.9v77.9C107.8,80.2,92.9,80.2,92.9,80.2z"/>
	<path class="st0" d="M117.6,80.2V2.3h14.9V67h24v13.2H117.6z"/>
	<path class="st0" d="M161.1,80.2V2.3H176V67h24v13.2H161.1z"/>
	<path class="st0" d="M205.4,80.2V2.3h14.9v77.9C220.3,80.2,205.4,80.2,205.4,80.2z"/>
	<path class="st0" d="M224.8,80.2l19.3-77.9h19.1L282,80.2h-14.2L264,63.8h-20.6l-4.2,16.4H224.8z M246.1,50.7h14.8l-7.2-31.5h-0.2
		L246.1,50.7z"/>
	<path class="st0" d="M286.6,80.2V2.3h20.8l13.5,51.1h0.2l13.5-51.1h20.8v77.9h-12.7V18.9h-0.2l-15.9,61.3h-11.2l-15.9-61.3h-0.2
		v61.3H286.6L286.6,80.2z"/>
	<path class="st0" d="M416.3,24c-2.5-7.3-5.7-10.5-10.9-10.5c-5.3,0-8.2,3.2-8.2,8.5c0,11.8,33.2,12.6,33.2,37
		c0,13.4-9.2,22.2-24.8,22.2c-12.1,0-21.5-6.6-25.5-21.9l14.7-3.1c1.7,9.4,7.1,12.7,11.5,12.7c5.2,0,9.2-3.5,9.2-9.3
		c0-14.7-33.2-14.9-33.2-36.7c0-13.4,8-21.8,23.4-21.8c13.3,0,21.4,7.9,24,18.9L416.3,24z"/>
	<path class="st0" d="M439.9,80.2V2.3h14.9v31.1h21V2.3h14.9v77.9h-14.9V46.5h-21v33.7H439.9L439.9,80.2z"/>
	<path class="st0" d="M500.5,80.2V2.3h40.8v13.2h-25.9v17.9h19.7v13.2h-19.7v20.5h27v13.1L500.5,80.2L500.5,80.2z"/>
	<path class="st0" d="M550,80.2V2.3h14.9V67h24v13.2H550z"/>
	<path class="st0" d="M593.5,80.2V2.3h14.9V67h24v13.2H593.5z"/>
	<path class="st0" d="M652.5,33.7l12.6-31.4H681l-21.3,46.4v31.5h-14.9V48.7L623.5,2.3h15.9L652.5,33.7z"/>
</g>
</svg>
